<mxfile host="app.diagrams.net" modified="2023-08-09T19:09:43.313Z" agent="Mozilla/5.0 (X11; Linux x86_64) AppleWebKit/537.36 (KHTML, like Gecko) Chrome/113.0.0.0 Safari/537.36" version="21.3.7" etag="zJ0mfj0edjzwyWCuRpKb" type="github">
  <diagram id="DjwuBjzQSKJYnALhCdY3" name="Page-1">
    <mxGraphModel dx="1360" dy="775" grid="1" gridSize="10" guides="1" tooltips="1" connect="1" arrows="1" fold="1" page="1" pageScale="1" pageWidth="1200" pageHeight="1070" math="0" shadow="0">
      <root>
        <mxCell id="0" />
        <mxCell id="1" parent="0" />
        <mxCell id="4EAGslu62ZiDNw4BVvQ3-2" value="" style="rounded=0;whiteSpace=wrap;html=1;" vertex="1" parent="1">
          <mxGeometry x="40" y="40" width="440" height="720" as="geometry" />
        </mxCell>
        <mxCell id="4EAGslu62ZiDNw4BVvQ3-4" value="" style="rounded=0;whiteSpace=wrap;html=1;" vertex="1" parent="1">
          <mxGeometry x="560" y="40" width="530" height="340" as="geometry" />
        </mxCell>
        <mxCell id="4EAGslu62ZiDNw4BVvQ3-5" value="" style="rounded=0;whiteSpace=wrap;html=1;" vertex="1" parent="1">
          <mxGeometry x="560" y="420" width="530" height="340" as="geometry" />
        </mxCell>
      </root>
    </mxGraphModel>
  </diagram>
</mxfile>
